<?xml version="1.0" encoding="UTF-8"?>
<svg width="624px" height="625px" viewBox="0 0 624 625" version="1.1" xmlns="http://www.w3.org/2000/svg" xmlns:xlink="http://www.w3.org/1999/xlink">
    <title>g1240</title>
    <g id="Page-1" stroke="none" stroke-width="1" fill="none" fill-rule="evenodd">
        <g id="ute-alloween-onster-adges" transform="translate(0.000000, -1242.000000)" fill-rule="nonzero">
            <g id="g1240" transform="translate(0.728300, 1242.866240)">
                <g id="g1222">
                    <circle id="circle1163" fill="#22002B" cx="311.4424" cy="311.99225" r="311.17068"></circle>
                    <circle id="circle1165" stroke="#FF0083" stroke-width="3.34699893" fill="#E574FF" stroke-linecap="round" stroke-linejoin="round" cx="312.1753" cy="312.72516" r="260.78232"></circle>
                </g>
                <g id="g5192" transform="translate(85.285900, 57.681210)">
                    <polygon id="path5150" fill="#D9D9DE" points="180.81183 72.0982 106.26839 118.0666 106.26839 141.672 103.78361 144.1568 92.60209 139.1872 83.90536 146.6416 87.63253 166.5198 93.84448 180.1861 102.54122 183.9133 112.48034 180.1861 133.60098 231.1242 180.81183 293.2437 98.81405 299.4556 77.69341 308.1524 107.51078 370.2719 184.539 311.8795 367.17042 355.3632 351.01934 292.0013 286.41503 257.2144 324.92914 217.4579 328.65631 201.3068 337.35305 186.3981 337.35305 160.3079 347.29217 161.5503 352.26174 161.5503 363.44325 146.6416 365.92803 128.0057 363.44325 119.309 337.35305 129.2481 333.62588 75.8253"></polygon>
                    <polygon id="path5152" fill="#EBEBFF" points="276.29368 287.9021 162.46365 283.2369 205.38317 415.7276 271.62851 402.6652"></polygon>
                    <polygon id="path5154" stroke="#000000" fill="#371B59" points="154.99939 321.4913 106.48167 396.1339 175.52612 412.9285 280.02581 414.7946 358.40058 399.8661 274.42761 305.6297 259.49909 398 203.51711 410.1294 194.18678 352.2814 174.59308 324.2904"></polygon>
                    <polygon id="path5156" fill="#993B33" points="229.64203 271.1075 210.98137 264.5763 205.38317 260.8442 169.92792 266.4424 188.58858 307.4958 202.58407 307.4958 212.84744 299.0985 222.17777 292.5673 232.44113 290.7012 243.63752 300.9646 246.43662 305.6297 274.42761 306.5628 267.89638 260.8442 250.16876 260.8442 234.30719 272.0406"></polygon>
                    <g id="g4538" fill="#000000">
                        <path d="M232.006,463.405 C229.118,464.681 227.784,467.533 224.639,468.118 C223.477,468.334 223.511,472.318 224.323,474.211 C228.017,482.819 224.137,495.235 225.337,503.186 C225.765,506.019 224.176,507.697 221.283,507.545 C217.701,507.357 213.596,509.133 210.936,504.968 C210.324,504.01 209.336,504.789 208.573,505.035 C198.614,508.247 188.708,507.119 179.003,504.188 C163.25,499.431 172.203,478.621 180.079,475.159 C182.119,474.262 181.127,474.353 180.449,440.249 C180.358,435.686 176.446,434.78 173.629,433.282 C156.958,424.419 122.794,405.193 79.642,415.998 C63.01,420.162 68.486,420.611 58.059,426.863 C53.936,422.666 67.201,416.158 44.73,423.225 C45.696,419.044 46.281,415.202 47.482,411.565 C52.622,396 45.643,361.859 30.134,351.785 C28.987,351.04 18.899,339.323 2.454,339.187 C1.648,339.177 0.663,339.14 0.197,338.102 C0.271,335.605 93.992,283.91 142.453,260.788 C146.282,258.961 144.822,259.404 128.431,235.613 C116.089,217.698 105.125,211.602 123.079,210.494 C119.835,201.654 114.977,193.643 113.127,184.495 C112.665,182.209 111.787,182.144 109.893,183.154 C98.274,189.353 94.184,181.937 90.85,176.166 C79.088,155.807 81.739,131.063 97.476,139.707 C106.234,144.517 96.587,132.85 103.758,106.206 C138.911,-24.404 298.94,-41.501 346.291,98.933 C347.768,103.315 347.517,105.592 348.411,122.207 C373.579,106.863 370.823,139.444 359.262,158.36 C351.016,171.852 341.347,158.175 341.152,165.679 C340.605,186.833 329.496,206.561 328.938,208.333 C327.385,213.266 335.414,208.275 336.998,212.976 C338.817,218.374 334.631,219.186 322.736,235.882 C304.658,261.256 305.898,259.4 308.472,260.491 C331.787,270.373 451.115,337.165 452.116,337.736 C450.065,339.569 447.887,339.522 446.01,339.572 C429.616,340.013 395.312,361.803 404.352,413.943 C404.764,416.319 404.718,418.924 406.259,421.041 C406.743,421.706 406.829,422.375 406.144,422.955 C405.364,423.616 404.88,422.803 404.249,422.573 C402.62,421.98 400.957,421.481 399.298,420.976 C397.379,420.392 395.226,418.597 393.568,419.685 C391.755,420.875 394.18,423.018 393.901,424.814 C393.746,425.814 393.8,427.809 391.734,426.043 C370.398,407.812 327.829,411.615 301.669,421.472 C294.169,424.298 287.234,428.623 280.037,432.259 C278.491,433.04 278.267,434.377 278.235,435.917 C277.255,483.235 275.953,471.848 282.794,481.733 C288.649,490.194 287.583,502.284 274.758,504.987 C265.538,506.93 256.152,508.653 246.988,504.417 C246.165,504.037 245.707,504.255 245.21,504.964 C241.965,509.597 237.346,507.428 233.225,507.153 C231.397,507.031 230.867,505.139 231.034,503.406 C232.064,492.69 228.373,484.326 231.796,474.832 C233.078,471.291 232.583,467.487 232.006,463.405 Z M116.784,181.272 C125.958,216.074 146.573,241.299 180.338,257.951 C194.041,264.709 200.765,252.095 213.832,263.846 C218.655,268.183 220.269,267.611 234.609,267.211 C245.209,266.916 242.961,256.088 262.802,259.364 C271.595,260.816 292.337,245.6 298.659,240.122 C333.937,209.554 341.713,162.43 334.247,164.474 C333.332,164.724 331.225,163.031 332.061,161.011 C332.611,159.682 338.832,117.254 332.696,112.181 C300.136,85.258 242.431,119.19 229.38,151.748 C228.42,154.143 226.416,154.767 225.073,153.064 C223.339,150.866 220.86,149.458 219.372,147.169 C205.831,126.334 167.352,105.81 124.97,122.932 C114.781,127.048 112.8,129.933 113.719,140.932 C115.676,164.382 127.408,184.613 116.784,181.272 L116.784,181.272 Z M211.934,377.32 C211.934,359.386 211.934,341.453 211.934,323.519 C216.026,382.217 214.062,373.845 214.71,387.572 C215.043,394.63 218.305,393.095 233.221,393.089 C247.376,393.089 237.708,389.01 242.43,306.399 C242.609,303.262 237.415,293.185 229.815,298.73 C229.514,298.95 228.942,298.755 228.534,298.878 C225.197,299.877 222.163,295.54 219.593,297.381 C217.499,298.882 213.984,304.398 211,304.944 C206.595,305.75 207.483,304.2 207.752,361.205 C207.779,366.835 209.172,372.224 211.934,377.32 L211.934,377.32 Z M251.094,263.874 C236.422,267.759 234.244,279.947 239.916,294.025 C242.957,301.572 250.563,303.532 258.478,303.308 C261.393,303.225 263.111,302.113 263.522,299.087 C267.517,269.623 269.441,259.017 251.094,263.874 Z M192.783,299.23 C193.932,307.995 213.092,301.904 216.873,294.272 C218.948,290.083 213.299,287.313 218.418,277.454 C221.396,271.718 207.673,263.971 201.076,262.533 C185.149,259.062 190.746,283.695 192.783,299.23 Z M106.064,335.696 C112.831,335.316 118.164,334.081 123.021,331.244 C129.441,327.495 126.123,326.265 124.571,312.039 C124.216,308.781 123.503,307.082 105.941,309.289 C95.929,310.547 97.718,318.868 100.033,329.905 C100.87,333.888 102.818,336.256 106.064,335.696 L106.064,335.696 Z M95.829,176.787 C100.205,183.974 113.175,179.944 111.119,175.668 C107.64,168.435 105.534,138.809 90.326,143.043 C85.943,144.263 86.622,161.664 95.829,176.787 Z M346.716,313.968 C342.228,312.457 337.53,311.349 332.68,311.242 C330.644,311.197 329.788,312.131 329.391,313.892 C325.64,330.536 322.389,331.98 325.499,334.09 C331.951,338.465 345.445,342.524 347.748,335.049 C349.509,329.332 352.404,315.883 346.716,313.968 L346.716,313.968 Z M363.13,129.985 C362.663,127.42 364.598,123.402 359.714,122.618 C354.945,121.853 348.504,125.996 347.89,130.762 C346.099,144.666 337.267,157.098 344.246,159.71 C347.604,160.967 351.151,161.991 354.097,158.255 C360.594,150.017 362.85,140.491 363.13,129.985 L363.13,129.985 Z M324.454,389.618 C320.937,379.661 292.526,338.33 287.331,340.812 C281.138,343.771 314.937,387.247 320.98,390.875 C322.57,391.829 324.021,392.012 324.454,389.618 Z M133.004,391.572 C133.943,391.016 135.452,390.537 136.353,389.52 C179.396,340.888 168.173,337.347 164.458,341.675 C160.342,346.47 122.002,389.977 133.004,391.572 Z M244.618,373.782 C249.278,369.464 248.377,369.193 248.38,309.371 C248.38,307.608 248.38,305.302 246.194,305.269977 C243.138,305.224 244.571,372.781 244.618,373.782 L244.618,373.782 Z M203.082,339.89 C205.547,338.257 204.27,320.227 204.464,309.329 C204.506,306.956 200.514,306.642 200.516,309.779 C200.526,326.349 199.92,329.74 203.082,339.89 L203.082,339.89 Z M252.03,346.553 C256.928,344.243 255.344,318.833 255.552,311.152 C255.587,309.872 256.248,307.843 254.057,307.695 C251.353,307.512 252.03,305.749 252.03,346.553 L252.03,346.553 Z" id="path4524"></path>
                        <path d="M251.261,214.736 C248.652,227.073 245.754,223.943 249.002,239.322 C249.754,242.883 250.157,244.521 248.497,245.327 C246.962,246.072 245.916,244.431 244.733,243.683 C240.253,240.852 236.881,235.875 230.488,236.775 C228.648,237.034 227.159,237.314 226.031,238.893 C224.086,241.616 220.805,242.998 218.965,245.885 C217.712,247.851 214.291,247.015 214.676,243.638 C215.114,239.805 218.658,230.157 214.336,225.851 C213.093,224.613 212.586,222.531 212.025,220.743 C211.554,219.241 209.91,217.129 212.281,216.218 C216.391,214.638 216.561,225.915 224.284,230.995 C238.383,240.268 247.543,221.172 247.736,213.821 C247.768,212.611 248.061,211.299 249.632,211.476 C251.435,211.68 251.18,213.257 251.261,214.736 L251.261,214.736 Z" id="path4526"></path>
                        <path d="M182.233911,176.156 C182.284,163.476 202.335,162.267 202.348006,176.201 C202.361,190.221 182.185,188.607 182.233911,176.156 Z" id="path4528"></path>
                        <path d="M269.903,179.12 C257.12,179.044 256.178,159.088 269.998,159.14886 C283.435,159.209 283.143,179.198 269.903,179.12 Z" id="path4530"></path>
                        <path d="M227.366,323.291 C221.756,322.993 222.093,314.63 227.779,314.726 C233.325,314.82 233.588,323.621 227.366,323.291 Z" id="path4532"></path>
                        <path d="M227.553,373.091 C221.8,373.009 222.007,364.628 227.592,364.522 C233.274,364.413 233.645,373.179 227.553,373.091 Z" id="path4534"></path>
                        <path d="M223.435,344.737 C223.511,338.348 231.884,338.356 231.898015,344.723 C231.911,350.177 223.375,349.821 223.435,344.737 Z" id="path4536"></path>
                    </g>
                </g>
            </g>
        </g>
    </g>
</svg>