<?xml version="1.0" encoding="UTF-8"?>
<svg width="625px" height="624px" viewBox="0 0 625 624" version="1.1" xmlns="http://www.w3.org/2000/svg" xmlns:xlink="http://www.w3.org/1999/xlink">
    <title>g1301</title>
    <g id="Page-1" stroke="none" stroke-width="1" fill="none" fill-rule="evenodd">
        <g id="ute-alloween-onster-adges" transform="translate(-835.000000, -1243.000000)" fill-rule="nonzero">
            <g id="g1301" transform="translate(835.442630, 1243.578820)">
                <g id="g1285">
                    <circle id="circle1216" fill="#AFAF12" cx="311.88446" cy="311.2797" r="311.17068"></circle>
                    <circle id="circle1218" stroke="#FEFF06" stroke-width="3.34699893" fill="#ECEC95" stroke-linecap="round" stroke-linejoin="round" cx="312.61737" cy="312.0126" r="260.78232"></circle>
                </g>
                <g id="g5178" transform="translate(161.257960, 1.896260)">
                    <polygon id="path5158" fill="#BA7A5E" points="96.61317 113.1706 44.36332 158.8892 46.22939 211.1391 63.95701 237.264 98.47923 264.3219 125.5372 272.7192 124.6042 310.0406 54.62668 369.7547 54.62668 398.6787 49.96152 405.21 37.83209 412.6742 37.83209 419.2054 44.36332 419.2054 42.49726 429.4688 49.96152 432.2679 51.82759 438.7991 55.55972 438.7991 62.09095 432.2679 63.95701 442.5312 67.68915 439.7321 75.15341 423.8706 81.68464 426.6697 88.21587 425.7366 88.21587 421.0715 81.68464 414.5402 98.47923 348.2949 98.47923 446.2634 88.21587 502.2453 60.22488 512.5087 51.82759 533.0354 66.75611 543.2988 82.61767 547.964 119.006 539.5667 122.7381 534.9015 122.7381 518.1069 129.2693 514.3748 135.8006 475.1874 183.3852 342.6967 157.2603 424.8036 184.3183 520.906 182.4522 533.9685 186.1843 539.5667 218.8405 548.897 242.1663 546.0979 251.4966 531.1694 245.8984 514.3748 220.7066 503.1784 210.4432 439.7321 205.778 338.0315 224.4387 410.8081 215.1084 422.0045 218.8405 427.6027 229.1039 424.8036 234.7021 440.6652 238.4342 441.5982 243.0993 432.2679 248.6975 439.7321 253.3627 436.933 251.4966 428.5357 258.9609 432.2679 262.693 429.4688 259.8939 420.1384 267.3582 417.3393 267.3582 414.5402 254.2957 404.2769 250.5636 369.7547 176.854 289.5138 176.854 272.7192 199.2468 267.121 241.2333 237.264 261.76 199.9427 253.3627 110.3715 272.9564 105.7063 291.6171 97.309 281.3537 48.7913 250.5636 68.385 248.6975 99.1751 47.16242 87.9787 45.29635 68.385 18.2384 47.8583 7.042 83.3135 7.97503 98.2421 23.8366 107.5724 67.68915 105.7063"></polygon>
                    <polygon id="path5160" fill="#61689D" points="101.27833 386.5493 95.68014 469.5892 87.28284 509.7096 101.27833 492.915 101.27833 505.0444 113.4078 495.7141 112.4747 510.6426 119.006 503.1784 123.6711 514.3748 152.5951 425.7366 158.1933 422.0045 184.3183 518.1069 188.9834 501.3123 196.4477 518.1069 199.2468 495.7141 205.778 511.5757 206.7111 491.982 219.7735 504.1114 214.1753 459.3258 201.1129 373.4868 147.93 406.143"></polygon>
                    <polygon id="path5162" fill="#6EAB79" points="107.8551 314.5237 129.8534 294.0425 134.4048 296.3181 139.7147 313.7651 147.3004 301.6281 152.6103 314.5237 154.1274 319.8336 160.196 309.2137 165.5059 314.5237 168.5402 297.8353 171.5744 291.0082 190.5385 297.0767 164.7473 404.7927 121.5092 397.9656"></polygon>
                    <polygon id="path5164" fill="#DAD9C2" points="129.0949 236.3916 123.0263 247.7701 123.7849 252.3215 136.6805 249.2872 130.612 242.4601"></polygon>
                    <polygon id="path5166" fill="#DAD9C2" points="164.7473 235.6331 157.9203 251.5629 171.5744 253.8386 169.2987 246.253"></polygon>
                    <g id="g4548" fill="#000000">
                        <path d="M224.769,500.999 C229.932,502.486 234.305,505.805 239.525,507.233 C254.18,511.243 250.221,525.309 256.38,528.852 C260.211,531.056 259.171,539.298 255.191,541.177 C252.88,542.268 253.675,539.064 251.889,539.127 C249.7,542.609 245.137,544.206 243.595,548.693 C243.274,549.626 241.908,551.135 239.742,549.587 C237.555,548.024 227.698,551.21 225.764,553.561 C224.335,555.299 223.051,555.565 222.56,553.08 C222.136,550.936 220.867,550.781 219.139,550.67 C208.309,549.974 197.853,547.44 188.066,542.868 C174.024,536.307 185.002,523.37 174.622,492.078 C173.594,488.979 169.696,459.905 154.974,427.869 C153.974,428.044 142.042,460.893 139.169,473.153 C136.961,482.574 129.683,518.246 127.436,519.257 C118.133,523.446 135.193,536.072 112.904,543.853 C104.845,546.666 96.599,549.506 87.942,549.422 C84.187,549.386 84.789,553.994 82.44,553.701 C80.282,553.432 79.979,549.251 76.395,549.871 C72.724,550.506 69.085,546.929 65.207,549.514 C64.936,549.695 63.557,548.989 63.45,548.521 C62.414,544.023 57.462,543.252 55.325,539.81 C52.13,534.664 53.436,545.394 49.56,540.368 C45.855,535.563 46.19,531.612 50.921,527.88 C54.453,525.094 51.399,510.35 67.093,505.881 C72.486,504.345 77.433,501.309 82.707,499.275 C87.804,497.309 88.419,492.651 89.452,488.46 C91.567,479.879 96.37,439.33 96.481,435.394 C96.534,433.53 97.36,431.288 93.718,431.879 C91.324,432.267 91.101,429.983 91.312,428.178 C93.337,410.838 92.606,393.284 95.368,376 C95.558,374.81 95.998,373.453 94.397,371.79 C84.682,413.914 83.259,412.952 88.624,418.812 C94.711,425.463 84.67,431.869 80.114,428.452 C74.304,424.095 77.237,435.411 69.562,441.488 C64.672,445.36 63.533,445.321 60.918,439.496 C48.398,445.119 52.496,434.269 47.912,433.959 C34.492,433.049 44.569,422.651 39.025,421.665 C36.216,421.166 36.027,418.745 36.06,416.539 C36.099,413.972 36,411.382 38.798,409.701 C50.568,402.63 50.745,402.4 51.75,388.246 C51.976,385.062 53.375,381.686 50.883,378.567 C49.985,377.443 51.504,376.137 51.94,374.995 C58.02,359.032 57.671,342.192 58.826,325.564 C60.821,296.847 61.821,285.151 118.951,285.583 C120.417,285.594 122.893,287.351 123.496,284.159 C125.445,273.84 117.56,274.559 111.314,272.329 C63,255.077 38.259,209.464 35.53,188.977 C35.245,186.837 33.819,186.456 32.087,186.568 C23.084,187.152 15.495,182.913 7.816,179.248 C-9.213,171.118 11.16,141.438 13.771,141.773 C15.341,141.974 15.244,143.393 15.528,144.449 C16.893,149.521 15.772,157.115 30.994,164.74 C30.994,146.941 32.967,130.412 39.619,113.922 C39.979,113.03 40.937,112.031 40.176,111.107 C39.448,110.223 38.28,110.743 37.3,110.984 C8.941,117.974 -4.228,93.574 2.133,74.808 C5.47,64.961 10.75,51.809 17.963,39.709 C19.555,37.038 23.629,35.994 24.051,41.019 C24.384,44.984 26.855,47.738 29.663,50.013 C53.26,69.139 53.68,61.205 53.68,86.843 C63.331,72.774 79.4,58.212 96.03,49.924 C125.687,35.144 132.259,40.607 130.722,35.449 C128.689,28.632 129.825,21.77 134.987,17.002 C142.667,9.908 151.254,4.356 161.783,0.533 C159.683,11.011 149.488,12.386 154.496,34.29 C155.633,39.265 164.474,34.959 180.443,39.765 C228.324,54.175 240.141,78.956 245.542,81.274 C247.594,63.16 244.417,69.041 268.523,51.147 C271.816,48.702 274.534,45.73 275.553,41.589 C275.962,39.926 275.865,37.724 278.108,37.624 C280.077,37.536 281.631,38.871 282.522,40.716 C289.948,56.108 307.84,86.036 292.423,103.027 C275.249,121.954 260.33,104.51 264.119,115.84 C269.045,130.573 271.796,145.615 271.168,161.19 C271.074,163.511 271.874,164.231 273.888,163.002 C283.591,157.078 283.415,154.426 286.91,143.477 C289.167,136.405 298.12,156.726 300.319,165.59 C301.766,171.421 298.924,176.866 293.38,179.424 C285.912,182.87 278.643,187.032 269.961,186.602 C264.417,186.327 270.289,190.515 257.222,214.946 C240.35,246.491 211.013,268.254 181.654,275.116 C176.516,276.317 178.819,280.85 178.754,283.947 C178.681,287.455 181.667,285.856 183.364,285.719 C196.233,284.687 209.026,285.916 221.587,288.212 C243.739,292.261 246.547,299.355 247.582,349.113 C247.65,352.39 248.606,355.184 250.068,358.152 C253.244,364.602 253.656,371.845 254.582,378.867 C257.819,403.427 254.79,403.702 262.689,407.848 C272.201,412.841 268.571,419.994 267.569,420.31 C263.401,421.625 264.284,424.792 264.361,427.91 C264.455,431.738 261.873,434.383 258.055,434.028 C255.492,433.79 254.628,434.09 254.127,436.828 C253.328,441.194 249.566,442.757 245.971,440.299 C241.46,437.214 241.441,449.196 235.033,441.865 C231.367,437.671 228.06,433.281 227.875,426.291 C222.645,431.176 218.372,428.764 214.109,426.327 C214.242,412.917 222.893,416.296 221.526,408.084 C220.095,399.489 215.219,392.03 213.895,383.405 C213.364,379.948 211.741,376.66 210.614,373.295 C211.053,434.285 219.563,499.499 224.769,500.999 L224.769,500.999 Z M241.025,157.745 C239.615,170.038 240.611,172.668 232.88,176.538 C222.842,181.563 205.417,182.044 204.746,180.423 C203.975,178.558 212.546,173.954 214.905,169.692 C217.586,164.847 218.017,159.45 218.929,154.177 C219.347,151.76 218.168,150.831 215.616,151.038 C212.228,151.313 187.08,155.693 180.684,158.178 C151.281,169.601 113.028,155.342 109.517,154.836 C100.13,153.483 85.409,148.84 85.214,152.544 C84.227,171.308 92.193,172.795 96.908,178.447 C97.433,179.076 98.381,179.651 98.006,180.635 C97.369,182.308 67.431,182.166 63.764,168.752 C62.835,165.355 62.709,161.739 62.158,157.77 C58.769,161.182 55.823,164.111 54.944,168.675 C52.372,182.028 51.23,195.437 52.36,209.025 C52.702,213.138 54.168,211.39 63.382,206.537 C63.382,210.653 55.276,238.079 93.537,258.495 C143.753,285.289 236.279,268.993 237.95,214.799 C238.054,211.444 235.423,208.634 236.102,205.184 C240.61,203.96 251.73,217.061 251.874,208.585 C252.105,194.882 253.578,165.531 241.025,157.745 L241.025,157.745 Z M215.728,495.588 C217.019,491.816 214.734,490.235 212.134,472.059 C206.686,433.98 211.051,425.726 202.371,418.48 C200.299,424.128 202.616,429.073 198.542,429.716 C196.141,430.095 196.53,429.544 190.622,416.058 C189.293,417.767 189.45,420.724 186.525,420.533 C183.628,420.344 184.211,417.674 183.44,415.949 C182.209,413.196 180.442,410.793 178.531,408.411 C176.246,410.366 179.607,424.17 174.416,424.961 C169.658,425.686 169.845,412.029 167.25,415.762 C162.733,422.261 160.696,409.741 158.215,407.999 C156.867,410.719 154.092,414.624 155.842,415.856 C160.647,419.237 159.547,424.346 161.339,428.528 C174.195,458.513 179.197,490.128 184.233,507.699 C185.647,503.761 185.696,500.566 185.748,497.366 C185.81,493.579 189.93,492.167 191.956,496.285 C192.533,497.457 192.229,499.107 193.645,500.098 C195.866,496.033 190.514,492.381 195.242,490.012 C198.768,488.245 201.185,494.107 204.198,499.277 C204.492,496.888 204.13,494.761 203.969,492.62 C203.56,487.158 208.05,486.839 210.475,489.654 C212.074,491.506 213.718,493.321 215.728,495.588 L215.728,495.588 Z M124.996,507.778 C128.911,506.46 124.913,503.814 136.346,463.68 C140.22,450.079 145.307,436.825 149.777,423.391 C150.047,422.581 151.513,421.66 150.275,420.766 C146.369,417.948 149.423,410.945 146.728,408.189 C140.367,418.142 141.575,422.256 136.108,416.517 C135.366,418.893 134.597,421.236 133.908,423.602 C132.978,426.798 128.673,427.097 128.135,423.045 C127.054,414.906 128.63,410.519 126.549,410.302 C121.927,409.821 122.945,420.923 118.717,421.352 C116.041,421.624 115.938,418.952 114.879,417.224 C110.341,422.488 110.621,431.927 106.684,431.359 C103.3,430.871 105.037,425.483 103.249,421.634 C99.129,445.916 99.525,471.026 92.819,495.468 C98.226,494.868 97.5,486.447 103.471,488.139 C106.18,488.907 105.49,491.001 104.549,500.63 C111.116,490.672 111.174,489.109 114.257,489.751 C117.274,490.379 116.556,493.206 115.914,499.693 C117.607,496.229 117.994,493.17 121.434,493.893 C124.948,494.635 122.215,496.62 124.996,507.778 L124.996,507.778 Z M160.537,312.578 C156.247,324.191 155.867,326.188 153.851,325.95 C150.476,325.552 148.785,311.096 147.452,307.78 C143.887,310.864 142.189,314.752 140.147,318.392 C138.739,320.902 135.78,320.929 135.365,317.763 C134.127,308.347 136.911,296.261 129.774,297.723 C127.696,298.149 128.841,300.422 129.101,301.765 C129.38,303.206 139.17,346.705 139.17,346.705 C149.852,388.445 147.3,395.355 152.053,395.261938 C156.783,395.168 172.068,311.973 177.071,295.839 C177.334,294.99 177.95,293.729 176.435,293.296 C171.155,291.787 171.324,302.942 170.101,318.862 C169.851,322.113 165.719,322.965 164.851,319.763 C164.132,317.113 161.886,315.504 160.537,312.578 L160.537,312.578 Z M110.367,503.243 C110.081,503.203 109.795,503.164 109.51,503.125 C103.687,514.562 104.553,515.157 101.988,514.827 C98.333,514.357 99.115,511.61 99.115,498.535 C90.822,507.939 88.551,514.433 84.874,512.467 C81.386,510.601 85.364,506.075 84.564,503.96 C77.641,506.932 70.772,509.846 63.936,512.837 C61.655,513.835 56.206,523.591 57.322,525.396 C59.111,528.287 58.979,530.9 58.242,533.979 C57.665,536.39 60.557,538.267 63.016,537.369 C70.868,534.503 72.966,532.11 72.891,538.866 C72.842,543.257 70.435,543.345 74.385,544.444 C80.453,546.133 75.896,540.95 87.606,538.786 C89.302,538.473 90.52,539.11 90.35,541.106 C89.816,547.396 108.764,539.957 114.79,537.666 C124.294,534.053 117.572,528.551 121.492,515.067 C121.857,513.813 121.121,512.243 120.911,510.815 C120.801,510.066 120.633,509.257 119.732,509.285 C116.984,509.371 117.704,524.407 112.166,523.364 C108.104,522.598 110.367,517.298 110.367,503.243 L110.367,503.243 Z M190.305,509.085 C187.379,516.505 181.296,533.061 188.574,537.228 C196.141,541.56 204.373,543.594 212.909,544.701 C214.853,544.953 216.437,544.81 216.222,542.16 C215.787,536.791 225.084,540.854 228.184,544.535 C229.73,546.371 231.359,545.121 232.976,544.824 C235.397,544.381 233.829,542.916 233.702,541.864 C232.694,533.488 237.032,536.216 242.834,537.986 C246.152,538.998 248.236,537.075 247.296,533.681 C246.612,531.211 246.676,528.918 247.37,526.462 C248.281,523.245 245.505,516.014 242.666,514.553 C237.69,511.992 232.639,509.533 227.217,507.875 C226.167,509.572 227.415,512.152 224.738,512.739 C219.875,513.804 215.227,501.385 210.075,498.749 C210.075,513.267 210.676,514.419 207.911,514.784 C202.695,515.473 205.022,507.368 199.123,501.601 C198.143,508.237 203.741,521.666 197.429,523.421 C194.257,524.302 190.791,510.526 190.305,509.085 L190.305,509.085 Z M82.688,382.096 C77.571,385.551 78.08,392.568 73.73,392.318 C70.589,392.137 72.907,385.666 70.29,385.26 C67.884,384.887 68.584,388.868 65.61,391.573 C63.743,393.271 63.441,397.818 60.171,396.524 C57.122,395.317 58.213,395.19 61.603,374.643 C59.613,376.201 57.4,376.979 57.158,379.588 C54.387,409.478 59.165,402.025 42.419,413.384 C41.554,413.971 40.616,414.768 41.247,415.858 C42.309,417.695 46.814,413.288 48.883,416.089 C51.39,419.482 42.966,425.668 45.702,428.296 C47.798,430.309 48.675,427.115 50.197,426.452 C59.658,422.33 53.434,432.463 55.297,436.349 C57.069,434.435 58.992,433.214 59.998,431.068 C61.822,427.175 65.006,429.144 65.553,431.994 C65.915,433.875 66.064,435.798 66.427,438.668 C69.174,433.947 72.093,430.574 72.524,425.835 C72.691,423.995 72.41,421.46 75.011,420.735 C81.007,419.062 81.122,426.585 84.162,424.589 C86.716,422.912 84.197,419.874 81.941,417.802 C79.278,415.355 79.162,412.904 80.285,409.386 C83.046,400.733 85.916,391.926 82.688,382.096 L82.688,382.096 Z M222.484,382.071 C222.002,387.34 223.154,398.791 226.368,409.322 C226.917,411.122 228.155,413.437 225.474,414.674 C222.812,415.902 222.168,418.627 220.554,420.623 C219.533,421.885 219.062,423.337 220.604,424.417 C222.18,425.52 222.399,423.585 223.138,422.914 C234.797,412.315 232.166,438.147 237.794,437.474 C239.989,437.211 238.444,434.588 239.092,433.126 C239.764,431.61 239.347,429.381 241.547,428.896 C246.034,427.907 245.956,437.354 249.347,435.853 C252.124,434.623 245.792,428.305 249.68,425.76 C253.592,423.199 256.234,430.887 258.96,428.284 C260.921,426.412 257.028,420.966 256.069,419.879 C253.203,416.628 255.783,414.571 258.994,415.432 C260.56,415.852 263.106,417.214 263.851,415.883 C264.36,414.973 263.68,414.103 262.886,413.738 C259.833,412.337 257.857,409.41 254.607,408.205 C252.656,407.481 250.111,406.087 250.652,403.662 C252.12,397.083 250.501,390.664 250.462,384.182 C250.432,379.197 247.664,376.385 244.603,373.261 C242.617,376.463 250.186,394.602 245.627,395.956 C240.865,397.37 242.078,390.231 235.008,384.653 C233.037,386.477 235.109,391.187 231.752,391.732 C227.256,392.462 230.315,386.98 222.484,382.071 L222.484,382.071 Z M43.175,90.471 C43.219,90.471 43.262,90.461 43.306,90.461 C42.644,79.284 43.762,71.981 33.503,67.075 C29.969,65.386 26.267,62.986 23.8,59.445 C22.98,58.268 23.17,55.796 21.103,56.185 C18.242,56.724 18.378,65.996 14.692,76.559 C8.254,95.009 26.223,111.41 41.462,101.629 C43.66,100.217 43.175,98.064 43.175,90.469 L43.175,90.471 Z M277.754,56.045 C273.031,67.189 258.171,66.343 256.791,76.771 C255.969,82.977 249.833,101.484 263.682,104.56 C272.882,106.604 295.963,99.776 277.754,56.045 Z M165.407,307.912 C166.642,299.034 165.99,294.313 171.095,289.981 C174.537,287.059 173.34,282.738 173.257,278.881 C173.224,277.344 171.998,277.609 170.982,277.758 C157.639,279.713 144.304,279.68 130.969,277.664 C130.035,277.523 128.471,277.14 128.53,278.569 C129.312,297.659 130.982,290.531 133.929,292.966 C138.318,296.592 139.658,297.263 140.422,307.031 C147.174,298.624 146.867,298.226 148.628,298.545 C153.133,299.362 151.932,307.419 154.67,311.828 C158.222,303.261 158.386,302.337 160.644,302.275 C163.568,302.194 163.581,305.806 165.407,307.912 L165.407,307.912 Z" id="path4540"></path>
                        <path d="M146.523,255.013 C144.351,254.73 142.205,254.676 140.158,253.663 C135.05,251.136 124.419,259.123 120.659,254.561 C118.405,251.826 120.933,248.838 121.916,246.024 C124.609,238.312 128.772,238.979 127.441,235.674 C126.904,234.342 127.338,232.767 128.71,232.451 C130.125,232.125 130.225,233.865 130.73,234.838 C133.38,239.951 135.726,245.213 140.665,248.77 C145.679,252.381 156.549,249.763 159.262,244.189 C160.807,241.014 163.41,231.045 165.746,231.522 C167.131,231.805 167.569,233.189 167.128,234.283 C165.845,237.471 167.562,239.242 169.534,241.425 C173.578,245.899 177.496,257.75 168.619,255.795 C161.319,254.188 154.055,251.955 146.523,255.013 L146.523,255.013 Z M133.181,248.895 C133.425,248.543 133.668,248.19 133.912,247.838 C130.891,247.62 131.045,243.436 129.045,243.824 C127.583,244.108 126.709,247.374 125.552,249.298 C125.256,249.789 124.855,250.229 125.601,250.928 C128.048,250.272 130.615,249.584 133.181,248.895 L133.181,248.895 Z M160.655,249.305 C163.649,249.005 172.248,254.495 164.9,243.303 C163.531,245.239 162.397,246.842 160.655,249.305 Z" id="path4542"></path>
                        <path d="M188.449,206.636 C174.801,206.408 176.074,186.179 189.262,186.708 C201.738,187.208 202.581,206.872 188.449,206.636 Z" id="path4544"></path>
                        <path d="M98.284,196.975 C97.957,184.375 118.168,182.599 118.383,196.572 C118.6,210.597 98.607,209.382 98.284,196.975 Z" id="path4546"></path>
                    </g>
                </g>
            </g>
        </g>
    </g>
</svg>